<svg xmlns="http://www.w3.org/2000/svg" version="1.1" xmlns:xlink="http://www.w3.org/1999/xlink" width="512" height="512" x="0" y="0" viewBox="0 0 682.667 682.667" style="enable-background:new 0 0 512 512" xml:space="preserve" class=""><g><defs><clipPath id="a" clipPathUnits="userSpaceOnUse"><path d="M0 512h512V0H0Z" fill="#b68c5a" opacity="1" data-original="#000000"></path></clipPath></defs><path d="m0 0-19.786 4.337" style="stroke-width:15;stroke-linecap:round;stroke-linejoin:round;stroke-miterlimit:10;stroke-dasharray:none;stroke-opacity:1" transform="matrix(1.33333 0 0 -1.33333 207.182 248.035)" fill="none" stroke="#b68c5a" stroke-width="15" stroke-linecap="round" stroke-linejoin="round" stroke-miterlimit="10" stroke-dasharray="none" stroke-opacity="" data-original="#000000" class="" opacity="1"></path><path d="m0 0 19.813 4.337" style="stroke-width:15;stroke-linecap:round;stroke-linejoin:round;stroke-miterlimit:10;stroke-dasharray:none;stroke-opacity:1" transform="matrix(1.33333 0 0 -1.33333 315.803 248.035)" fill="none" stroke="#b68c5a" stroke-width="15" stroke-linecap="round" stroke-linejoin="round" stroke-miterlimit="10" stroke-dasharray="none" stroke-opacity="" data-original="#000000" class="" opacity="1"></path><g clip-path="url(#a)" transform="matrix(1.33333 0 0 -1.33333 0 682.667)"><path d="M0 0h81.523c6.831-.255 12.358 7.115 12.358 14.684v10.091c0 8.022-6.151 13.521-13.578 14.57-3.06.426-6.122.851-9.183 1.247a704.582 704.582 0 0 1-36.028 3.714 713.572 713.572 0 0 1-52.128 2.069 704.858 704.858 0 0 1-97.367-7.03c-7.427-1.049-13.578-6.548-13.578-14.57V14.684c0-8.022 6.094-14.57 13.578-14.57L-34.639 0" style="stroke-width:15;stroke-linecap:round;stroke-linejoin:round;stroke-miterlimit:10;stroke-dasharray:none;stroke-opacity:1" transform="translate(212.532 390.717)" fill="none" stroke="#b68c5a" stroke-width="15" stroke-linecap="round" stroke-linejoin="round" stroke-miterlimit="10" stroke-dasharray="none" stroke-opacity="" data-original="#000000" class="" opacity="1"></path><path d="M0 0v-63.383C0-68.514.681-73.814 1.928-79.2c8.192-34.498 40.931-71.66 78.376-86.089 8.73-3.175 16.526-4.932 24.207-5.301 7.654.369 15.448 2.126 24.179 5.301 38.749 14.003 71.403 51.619 79.51 86.117 1.275 5.471 2.097 11.651 2.097 18V.482" style="stroke-width:15;stroke-linecap:round;stroke-linejoin:round;stroke-miterlimit:10;stroke-dasharray:none;stroke-opacity:1" transform="translate(90.985 393.013)" fill="none" stroke="#b68c5a" stroke-width="15" stroke-linecap="round" stroke-linejoin="round" stroke-miterlimit="10" stroke-dasharray="none" stroke-opacity="" data-original="#000000" class="" opacity="1"></path><path d="M0 0c-17.659 36.907-52.95 72.851-93.598 73.928-40.676-1.077-75.966-37.021-93.626-73.928" style="stroke-width:15;stroke-linecap:round;stroke-linejoin:round;stroke-miterlimit:10;stroke-dasharray:none;stroke-opacity:1" transform="translate(289.094 430.572)" fill="none" stroke="#b68c5a" stroke-width="15" stroke-linecap="round" stroke-linejoin="round" stroke-miterlimit="10" stroke-dasharray="none" stroke-opacity="" data-original="#000000" class="" opacity="1"></path><path d="M0 0h11.905C37.7 0 35.319-52.328 6.066-52.328h-10.29" style="stroke-width:15;stroke-linecap:round;stroke-linejoin:round;stroke-miterlimit:10;stroke-dasharray:none;stroke-opacity:1" transform="translate(301.282 358.742)" fill="none" stroke="#b68c5a" stroke-width="15" stroke-linecap="round" stroke-linejoin="round" stroke-miterlimit="10" stroke-dasharray="none" stroke-opacity="" data-original="#000000" class="" opacity="1"></path><path d="M0 0h-11.763c-25.795 0-23.414-52.328 5.839-52.328H4.195" style="stroke-width:15;stroke-linecap:round;stroke-linejoin:round;stroke-miterlimit:10;stroke-dasharray:none;stroke-opacity:1" transform="translate(90.985 358.742)" fill="none" stroke="#b68c5a" stroke-width="15" stroke-linecap="round" stroke-linejoin="round" stroke-miterlimit="10" stroke-dasharray="none" stroke-opacity="" data-original="#000000" class="" opacity="1"></path><path d="M0 0h-210.297M-7.965-61.909c-26.787-5.528-51.731-5.358-76.562 0-5.952 1.304-18.765 8.022-20.466 15.534a.177.177 0 0 1-.34 0c-1.672-7.512-14.484-14.23-20.437-15.534-24.859-5.358-50.03-5.528-76.845 0" style="stroke-width:15;stroke-linecap:round;stroke-linejoin:round;stroke-miterlimit:10;stroke-dasharray:none;stroke-opacity:1" transform="translate(301.282 358.742)" fill="none" stroke="#b68c5a" stroke-width="15" stroke-linecap="round" stroke-linejoin="round" stroke-miterlimit="10" stroke-dasharray="none" stroke-opacity="" data-original="#000000" class="" opacity="1"></path><path d="M0 0a129.623 129.623 0 0 1-1.105-16.951v-32.174c0-12.812 10.516-23.329 23.328-23.329H164.32c12.841 0 23.329 10.517 23.329 23.329v31.522c0 44.929-23.215 88.952-68.37 93.827 32.966 12.586 43.199 42.945 40.45 60.52-.936 6.038-2.24 13.861-10.942 15.477-7.625 1.446-10.205-4.677-13.209-10.63-16.838-33.591-60.717-20.466-77.299-7.71-13.748 10.573-20.778-18.595-16.129-30.189 4.281-10.715 13.719-21.203 33.419-27.468-23.724 0-49.944-13.947-64.741-41.613" style="stroke-width:15;stroke-linecap:round;stroke-linejoin:round;stroke-miterlimit:10;stroke-dasharray:none;stroke-opacity:1" transform="translate(312.99 79.954)" fill="none" stroke="#b68c5a" stroke-width="15" stroke-linecap="round" stroke-linejoin="round" stroke-miterlimit="10" stroke-dasharray="none" stroke-opacity="" data-original="#000000" class="" opacity="1"></path><path d="M0 0v38.098" style="stroke-width:15;stroke-linecap:round;stroke-linejoin:round;stroke-miterlimit:10;stroke-dasharray:none;stroke-opacity:1" transform="translate(92.29 16.94)" fill="none" stroke="#b68c5a" stroke-width="15" stroke-linecap="round" stroke-linejoin="round" stroke-miterlimit="10" stroke-dasharray="none" stroke-opacity="" data-original="#000000" class="" opacity="1"></path><path d="M0 0c19.502-8.022 33.307-27.27 33.307-49.55 0-29.48-24.122-53.546-53.574-53.575l-103.632-.028c-29.452-.028-53.574 24.094-53.574 53.547 0 22.336 14.598 41.584 34.129 49.606" style="stroke-width:15;stroke-linecap:round;stroke-linejoin:round;stroke-miterlimit:10;stroke-dasharray:none;stroke-opacity:1" transform="translate(267.749 259.728)" fill="none" stroke="#b68c5a" stroke-width="15" stroke-linecap="round" stroke-linejoin="round" stroke-miterlimit="10" stroke-dasharray="none" stroke-opacity="" data-original="#000000" class="" opacity="1"></path><path d="M0 0h-298.792a6.387 6.387 0 0 0-6.378 6.378v88.385c0 46.828 34.383 85.974 79.17 93.487m210.354.651c20.409-2.353 40.874-11.281 55.274-24.576" style="stroke-width:15;stroke-linecap:round;stroke-linejoin:round;stroke-miterlimit:10;stroke-dasharray:none;stroke-opacity:1" transform="translate(316.532 16.94)" fill="none" stroke="#b68c5a" stroke-width="15" stroke-linecap="round" stroke-linejoin="round" stroke-miterlimit="10" stroke-dasharray="none" stroke-opacity="" data-original="#000000" class="" opacity="1"></path><path d="M0 0v-32.599c0-27.467-18.056-49.918-40.138-49.918h-13.095c-22.081 0-40.138 22.451-40.138 49.918V0" style="stroke-width:15;stroke-linecap:round;stroke-linejoin:round;stroke-miterlimit:10;stroke-dasharray:none;stroke-opacity:1" transform="translate(242.606 239.091)" fill="none" stroke="#b68c5a" stroke-width="15" stroke-linecap="round" stroke-linejoin="round" stroke-miterlimit="10" stroke-dasharray="none" stroke-opacity="" data-original="#000000" class="" opacity="1"></path><path d="m0 0 43.71.028" style="stroke-width:15;stroke-linecap:round;stroke-linejoin:round;stroke-miterlimit:10;stroke-dasharray:none;stroke-opacity:1" transform="translate(388.559 156.15)" fill="none" stroke="#b68c5a" stroke-width="15" stroke-linecap="round" stroke-linejoin="round" stroke-miterlimit="10" stroke-dasharray="none" stroke-opacity="" data-original="#000000" class="" opacity="1"></path><path d="M0 0h-15.363c-17.914 0-17.008-27.241.368-27.241h8.872c15.336 0 14.853-25.455-3.316-25.455H-26.9" style="stroke-width:15;stroke-linecap:round;stroke-linejoin:round;stroke-miterlimit:10;stroke-dasharray:none;stroke-opacity:1" transform="translate(421.894 105.72)" fill="none" stroke="#b68c5a" stroke-width="15" stroke-linecap="round" stroke-linejoin="round" stroke-miterlimit="10" stroke-dasharray="none" stroke-opacity="" data-original="#000000" class="" opacity="1"></path><path d="M0 0v-16.186" style="stroke-width:15;stroke-linecap:round;stroke-linejoin:round;stroke-miterlimit:10;stroke-dasharray:none;stroke-opacity:1" transform="translate(412.114 123.41)" fill="none" stroke="#b68c5a" stroke-width="15" stroke-linecap="round" stroke-linejoin="round" stroke-miterlimit="10" stroke-dasharray="none" stroke-opacity="" data-original="#000000" class="" opacity="1"></path><path d="M0 0v-16.214" style="stroke-width:15;stroke-linecap:round;stroke-linejoin:round;stroke-miterlimit:10;stroke-dasharray:none;stroke-opacity:1" transform="translate(410.017 53.024)" fill="none" stroke="#b68c5a" stroke-width="15" stroke-linecap="round" stroke-linejoin="round" stroke-miterlimit="10" stroke-dasharray="none" stroke-opacity="" data-original="#000000" class="" opacity="1"></path></g></g></svg>