<svg xmlns="http://www.w3.org/2000/svg" version="1.1" xmlns:xlink="http://www.w3.org/1999/xlink" width="512" height="512" x="0" y="0" viewBox="0 0 60 60" style="enable-background:new 0 0 512 512" xml:space="preserve" class=""><g><path d="M3 55h34.326l.924.924a3.1 3.1 0 0 0 4.371 0 3.089 3.089 0 0 0 .58-3.538l1.669-1.67 8.071 8.073a4.136 4.136 0 1 0 5.848-5.849l-8.071-8.073 1.668-1.667a3.057 3.057 0 0 0 3.538-.581 3.1 3.1 0 0 0 0-4.372L45.579 27.9a3.179 3.179 0 0 0-4.372 0 3.087 3.087 0 0 0-.579 3.538l-6.423 6.422A14.869 14.869 0 0 0 27 36h-1v-.892c5.549-2.217 6.7-7.994 6.939-10.219A4.008 4.008 0 0 0 36 21a3.965 3.965 0 0 0-.579-2.043 2.983 2.983 0 0 0 .545-5.783c-.34-6.268-4.536-10.8-11.172-12.041A2 2 0 0 0 23 0h-4a2 2 0 0 0-1.794 1.133C10.57 2.377 6.374 6.906 6.034 13.174a2.983 2.983 0 0 0 .545 5.783A3.965 3.965 0 0 0 6 21a4.008 4.008 0 0 0 3.061 3.889c.235 2.225 1.39 8 6.939 10.219V36h-1A15.017 15.017 0 0 0 0 51v1a3 3 0 0 0 3 3Zm54.375-.646a2.136 2.136 0 0 1-3.02 3.021L46.284 49.3l3.02-3.02ZM42.622 29.313a1.106 1.106 0 0 1 1.542 0L54.51 39.66a1.092 1.092 0 0 1 0 1.544 1.118 1.118 0 0 1-1.542 0L42.621 30.857a1.092 1.092 0 0 1 .001-1.544Zm-.708 3.666 4.466 4.466 4.466 4.466-8.932 8.934-4.466-4.467-4.466-4.467ZM30 38.358a12.827 12.827 0 0 1 2.723.984l-1.29 1.29a3.172 3.172 0 0 0-1.433-.3Zm-.682 4.26a1.1 1.1 0 0 1 .782-.318 1.081 1.081 0 0 1 .765.323l10.342 10.343a1.091 1.091 0 1 1-1.543 1.544L29.318 44.162a1.094 1.094 0 0 1 0-1.544ZM25 3.2c5.315 1.188 8.58 4.759 8.959 9.8H25ZM19 2h4v11h-4Zm-2 1.2V13H8.041C8.42 7.962 11.685 4.391 17 3.2ZM7 17a1 1 0 0 1 0-2h28a1 1 0 0 1 0 2Zm4 7a1 1 0 0 0-1-1 2 2 0 0 1 0-4h22a2 2 0 0 1 0 4 1 1 0 0 0-1 1c0 .408-.152 10-10 10s-10-9.594-10-10Zm13 11.7V37a3 3 0 0 1-6 0v-1.3a15 15 0 0 0 6 0Zm-10 2.351A12.7 12.7 0 0 1 15 38h1.1a5 5 0 0 0 9.8 0H27c.335 0 .668.016 1 .041v3.086c-.03.028-.066.048-.1.077a3.09 3.09 0 0 0-.841 2.8H14Zm-5 1.428a12.918 12.918 0 0 1 3-1.116V44H9ZM9 46h19.328l7 7H9Zm-7 5a12.97 12.97 0 0 1 5-10.225V53H3a1 1 0 0 1-1-1Z" fill="#b68c5a" opacity="1" data-original="#000000" class=""></path></g></svg>