<svg xmlns="http://www.w3.org/2000/svg" version="1.1" xmlns:xlink="http://www.w3.org/1999/xlink" width="512" height="512" x="0" y="0" viewBox="0 0 66 66" style="enable-background:new 0 0 512 512" xml:space="preserve"><g><path d="M64.29 48.38a4.058 4.058 0 0 0-4.91-1.99l-13.45 4.47c.06-.28.09-.57.09-.87 0-1.93-1.57-3.5-3.5-3.5H33.4a4.6 4.6 0 0 1-2.7-.87l-9.44-6.8a6.102 6.102 0 0 0-3.57-1.15h-3.45v-.57a3.64 3.64 0 0 0-3.64-3.64H4.9a3.64 3.64 0 0 0-3.64 3.64v16.38c0 .41.34.75.75.75s.75-.34.75-.75V37.1c0-1.18.96-2.14 2.14-2.14h5.69c1.18 0 2.14.96 2.14 2.14v21.13c0 1.18-.96 2.14-2.14 2.14H4.9c-1.18 0-2.14-.96-2.14-2.14v-1.5c0-.41-.34-.75-.75-.75s-.75.34-.75.75v1.5a3.64 3.64 0 0 0 3.64 3.64h5.69a3.64 3.64 0 0 0 3.64-3.64v-1.37h1.93c.7 0 1.39.19 2 .54l11.26 6.54c.85.49 1.8.74 2.75.74.64 0 1.27-.11 1.89-.34l23.41-8.57a.75.75 0 1 0-.51-1.41l-23.41 8.57c-1.11.41-2.34.3-3.37-.3L18.92 56.1c-.84-.49-1.79-.74-2.75-.74h-1.93v-16.2h3.45c.97 0 1.91.3 2.7.87l9.44 6.8c1.05.75 2.28 1.15 3.57 1.15h9.12c1.1 0 2 .9 2 2 0 .54-.16 1.12-.53 1.52l-1.38.46-11.9.02a.749.749 0 1 0 0 1.5l11.92-.02h.23c.74 0 1.39-.23 1.9-.64l15.09-5.01c1.21-.4 2.52.13 3.1 1.26.34.66.38 1.43.12 2.12-.27.69-.82 1.23-1.51 1.49l-1.88.69a.75.75 0 0 0-.45.96c.11.3.4.49.7.49.09 0 .17-.01.26-.05l1.88-.69c1.1-.4 1.97-1.26 2.39-2.35s.37-2.31-.17-3.35zM40 4.82c.41 0 .75-.34.75-.75v-2c0-.41-.34-.75-.75-.75s-.75.34-.75.75v2c0 .41.33.75.75.75zM34.16 5.23c.11.3.4.49.71.49.08 0 .17-.01.26-.05a.75.75 0 0 0 .45-.96l-.68-1.88a.75.75 0 1 0-1.41.51zM29.78 8.06a.736.736 0 0 0 1.05.09c.32-.27.36-.74.09-1.06l-1.29-1.53c-.27-.32-.74-.36-1.06-.09s-.36.74-.09 1.06zM24.9 11.22l1.73 1c.12.07.25.1.37.1.26 0 .51-.13.65-.38.21-.36.08-.82-.27-1.02l-1.73-1a.746.746 0 0 0-1.02.27c-.21.36-.09.82.27 1.03zM53.36 25.92a.746.746 0 0 0-.75 1.29l1.73 1c.12.07.25.1.37.1.26 0 .51-.13.65-.38.21-.36.08-.82-.27-1.02zM23.13 16.86l1.97.35c.04.01.09.01.13.01a.75.75 0 0 0 .13-1.49l-1.97-.35c-.41-.07-.8.2-.87.61s.2.79.61.87zM56.74 22.77a.75.75 0 0 0 .13-1.49l-1.97-.35c-.41-.07-.8.2-.87.61s.2.8.61.87l1.97.35c.04.01.09.01.13.01zM23.26 22.77c.04 0 .09 0 .13-.01l1.97-.35c.41-.07.68-.46.61-.87s-.46-.68-.87-.61l-1.97.35a.75.75 0 0 0-.61.87c.06.37.38.62.74.62zM54.03 16.59c.06.36.38.62.74.62.04 0 .09 0 .13-.01l1.97-.35c.41-.07.68-.46.61-.87s-.46-.68-.87-.61l-1.97.35a.76.76 0 0 0-.61.87zM26.63 25.92l-1.73 1c-.36.21-.48.67-.27 1.02.14.24.39.38.65.38.13 0 .26-.03.37-.1l1.73-1c.36-.21.48-.67.27-1.02s-.66-.49-1.02-.28zM52.99 12.32c.13 0 .26-.03.37-.1l1.73-1c.36-.21.48-.67.27-1.02a.74.74 0 0 0-1.02-.27l-1.73 1c-.36.21-.48.67-.27 1.02.14.23.39.37.65.37zM49.64 8.33c.21 0 .43-.09.57-.27l1.29-1.53c.27-.32.23-.79-.09-1.06s-.79-.23-1.06.09L49.06 7.1c-.27.32-.23.79.09 1.06.15.11.32.17.49.17zM44.87 5.68c.08.03.17.05.26.05.31 0 .59-.19.71-.49l.68-1.88a.75.75 0 1 0-1.41-.51l-.68 1.88c-.15.38.05.81.44.95z" fill="#b68c5a" opacity="1" data-original="#000000"></path><path d="M27.25 18.84c-.06 3.58 1.32 6.92 3.9 9.4 1.96 1.89 3.09 4.52 3.1 7.2-1.15.33-2 1.38-2 2.63 0 1.52 1.23 2.75 2.75 2.75h.56c-.19.38-.31.8-.31 1.25 0 1.52 1.23 2.75 2.75 2.75h4c1.52 0 2.75-1.23 2.75-2.75 0-.45-.12-.87-.31-1.25H45c1.52 0 2.75-1.23 2.75-2.75 0-1.25-.85-2.3-2-2.63.01-2.46 1-4.89 2.79-6.87.28-.31.25-.78-.05-1.06a.755.755 0 0 0-1.06.05c-2.01 2.22-3.13 4.97-3.17 7.76h-3.51v-9.55c3.36-.24 6.48-2.07 8.85-5.25.2-.27.2-.63 0-.9-2.55-3.42-5.96-5.3-9.6-5.3s-7.05 1.88-9.6 5.3c-.2.27-.2.63 0 .9 2.37 3.18 5.49 5.01 8.85 5.25v9.55h-3.51c-.04-3.05-1.32-6.02-3.55-8.16-2.27-2.19-3.5-5.14-3.44-8.29.1-5.85 4.94-10.8 10.78-11.03 3.1-.13 6.03.98 8.26 3.13 2.23 2.14 3.46 5.02 3.46 8.11 0 2.22-.65 4.37-1.87 6.21-.23.34-.14.81.21 1.04s.81.14 1.04-.21c1.39-2.09 2.12-4.52 2.12-7.04 0-3.5-1.39-6.77-3.92-9.2s-5.84-3.68-9.36-3.54c-6.62.26-12.1 5.87-12.22 12.5zm4.7 1.23c2.21-2.75 5.05-4.25 8.05-4.25s5.84 1.5 8.05 4.25C45.84 22.81 43 24.32 40 24.32s-5.84-1.51-8.05-4.25zm11.3 22c0 .69-.56 1.25-1.25 1.25h-4a1.25 1.25 0 0 1 0-2.5h4c.69 0 1.25.56 1.25 1.25zm3-4c0 .69-.56 1.25-1.25 1.25H35a1.25 1.25 0 0 1 0-2.5h10c.69 0 1.25.56 1.25 1.25z" fill="#b68c5a" opacity="1" data-original="#000000"></path><path d="M43 20.07c0-.28-.05-.54-.12-.79a1.496 1.496 0 0 1-2.38-1.21c0-.33.11-.63.29-.88a2.96 2.96 0 0 0-.79-.12c-1.66 0-3 1.34-3 3s1.34 3 3 3 3-1.34 3-3z" fill="#b68c5a" opacity="1" data-original="#000000"></path></g></svg>